<svg t="1635952871515" class="icon" viewBox="0 0 1024 1024" version="1.1" xmlns="http://www.w3.org/2000/svg" p-id="3975" ><path d="M790.4 294.4c0-12.8-12.8-22.4-22.4-22.4h-70.4V256c0-9.6-3.2-16-9.6-19.2l-160-102.4c-6.4-6.4-19.2-6.4-25.6 0l-160 102.4c-6.4 3.2-9.6 12.8-9.6 19.2v16H256c-12.8 0-22.4 9.6-22.4 22.4l-32 288c0 12.8 9.6 25.6 22.4 25.6 12.8 3.2 25.6-6.4 25.6-22.4l28.8-265.6h51.2v96c0 12.8 9.6 25.6 25.6 25.6s25.6-9.6 25.6-25.6v-96h272v96c0 12.8 9.6 25.6 25.6 25.6s25.6-9.6 25.6-25.6v-96h51.2l57.6 528H217.6l19.2-160c0-12.8-9.6-25.6-22.4-25.6-12.8-3.2-25.6 9.6-25.6 22.4l-19.2 185.6c0 6.4 0 12.8 6.4 19.2 3.2 3.2 9.6 6.4 16 6.4h640c6.4 0 12.8-3.2 19.2-6.4 3.2-6.4 6.4-12.8 6.4-19.2l-67.2-576z m-412.8-22.4L512 179.2l134.4 89.6v3.2h-268.8z" p-id="3976" fill="#8a8a8a"></path><path d="M524.8 579.2l57.6-57.6c6.4-6.4 6.4-16 0-22.4l-57.6-57.6c-6.4-6.4-16-6.4-22.4 0l-57.6 57.6c-6.4 6.4-6.4 16 0 22.4l57.6 57.6c3.2 6.4 16 6.4 22.4 0z" p-id="3977" fill="#8a8a8a"></path></svg>