<?xml version="1.0" standalone="no"?><!DOCTYPE svg PUBLIC "-//W3C//DTD SVG 1.1//EN" "http://www.w3.org/Graphics/SVG/1.1/DTD/svg11.dtd"><svg class="icon" width="200px" height="200.00px" viewBox="0 0 1024 1024" version="1.1" xmlns="http://www.w3.org/2000/svg"><path fill="#707070" d="M942.78 716.66L816.56 369.18h37.51c28.76 0 50.45-27.42 50.45-63.79v-89.18c0-36.36-21.69-63.78-50.45-63.78H694.69V74.04H501.12c-17.4 0-31.5 14.1-31.5 31.5s14.1 31.5 31.5 31.5h130.56v344.33c0 42.23-3.25 61.99-23.36 75.05-11.08 7.19-28.37 15.67-47.78 20.95-14.77 3.35-30.56 3.95-46.41-1.03-33.56-10.53-62.98-43.71-87.72-98.19 11.39-11.53 18.45-27.33 18.45-44.78v-89.18c0-35.17-28.61-63.79-63.78-63.79h-246c-35.17 0-63.78 28.62-63.78 63.79v397.32c0 2.32 0.28 4.56 0.76 6.74-3.11 12.56-4.95 25.62-4.95 39.13 0 89.78 73.04 162.83 162.83 162.83 81.22 0 148.54-59.83 160.69-137.68 2.34 0.55 4.74 0.92 7.25 0.92h229.36c14.01 77.64 81.93 136.76 163.55 136.76 91.72 0 166.33-74.61 166.33-166.33-0.02-23.93-5.2-46.64-14.34-67.22zM841.51 215.43c0.01 0.26 0.01 0.51 0.01 0.78v89.18c0 0.27 0 0.53-0.01 0.79H694.69v-90.74h146.82zM135.08 343.42l246.78 0.79v89.18c0 0.44-0.34 0.78-0.78 0.78l-246.78-0.78 0.78-89.97z m94.84 543.78c-55.04 0-99.82-44.78-99.82-99.82 0-55.05 44.78-99.83 99.82-99.83 55.05 0 99.83 44.78 99.83 99.83 0 55.04-44.78 99.82-99.83 99.82z m397.89-136.76H397.86c-3.19 0-6.21 0.62-9.11 1.5-16.24-72.78-81.23-127.39-158.83-127.39-35.75 0-68.74 11.72-95.63 31.33V497.09c0.27 0 0.52 0.08 0.78 0.08h229c20.66 71.59 56.24 118.22 106.28 138.03 18.9 7.48 37.84 10.4 55.9 10.4 16.54 0 32.18-2.59 46.56-6.25 24.27-5.3 45.9-15.45 63.46-26.14 2.69-1.59 4.87-2.95 6.36-3.92 52.05-33.8 52.05-90.42 52.05-127.89V369.18h55.49c0.31 1.99 0.79 3.98 1.5 5.94L842.82 626c-16.4-5.42-33.86-8.46-52.05-8.46-80.27 0.01-147.44 57.16-162.96 132.9zM790.77 887.2c-56.98 0-103.33-46.35-103.33-103.33s46.35-103.33 103.33-103.33c41.85 0 77.79 25.12 94.02 60.98l0.58 1.59c0.32 0.88 0.8 1.64 1.19 2.47 4.76 11.87 7.54 24.74 7.54 38.29-0.01 56.98-46.36 103.33-103.33 103.33z"  /></svg>